<svg width="960" height="600" viewBox="0 0 960 600" fill="none" xmlns="http://www.w3.org/2000/svg">
  <rect width="960" height="600" rx="24" fill="white" stroke="#E2E8F0" stroke-width="2"/>
  <rect x="0" y="0" width="960" height="64" rx="24" fill="#2563EB"/>
  <rect x="0" y="40" width="960" height="24" fill="#2563EB"/>
  <rect x="32" y="18" width="120" height="28" rx="6" fill="white" fill-opacity="0.25"/>
  <circle cx="908" cy="32" r="14" fill="white" fill-opacity="0.9"/>
  <circle cx="860" cy="32" r="7" fill="white" fill-opacity="0.5"/>
  <rect x="32" y="96" width="168" height="472" rx="12" fill="#F1F5F9"/>
  <rect x="48" y="120" width="120" height="12" rx="6" fill="#CBD5E1"/>
  <rect x="48" y="156" width="100" height="10" rx="5" fill="#E2E8F0"/>
  <rect x="48" y="184" width="110" height="10" rx="5" fill="#E2E8F0"/>
  <rect x="48" y="212" width="95" height="10" rx="5" fill="#E2E8F0"/>
  <rect x="48" y="240" width="120" height="10" rx="5" fill="#E2E8F0"/>
  <rect x="48" y="268" width="105" height="10" rx="5" fill="#E2E8F0"/>
  <rect x="48" y="296" width="90" height="10" rx="5" fill="#E2E8F0"/>
  <rect x="48" y="500" width="110" height="36" rx="8" fill="#2563EB"/>
  <rect x="232" y="96" width="224" height="120" rx="12" fill="#EFF6FF" stroke="#BFDBFE" stroke-width="1"/>
  <rect x="248" y="116" width="120" height="12" rx="6" fill="#93C5FD"/>
  <rect x="248" y="140" width="72" height="28" rx="6" fill="#3B82F6"/>
  <rect x="472" y="96" width="224" height="120" rx="12" fill="#F0FDF4" stroke="#BBF7D0" stroke-width="1"/>
  <rect x="488" y="116" width="120" height="12" rx="6" fill="#86EFAC"/>
  <rect x="488" y="140" width="72" height="28" rx="6" fill="#22C55E"/>
  <rect x="712" y="96" width="216" height="120" rx="12" fill="#FFF7ED" stroke="#FED7AA" stroke-width="1"/>
  <rect x="728" y="116" width="120" height="12" rx="6" fill="#FDBA74"/>
  <rect x="728" y="140" width="72" height="28" rx="6" fill="#F97316"/>
  <rect x="232" y="240" width="696" height="40" rx="8" fill="#F8FAFC"/>
  <rect x="248" y="252" width="96" height="10" rx="5" fill="#94A3B8"/>
  <rect x="620" y="252" width="60" height="10" rx="5" fill="#94A3B8"/>
  <rect x="820" y="252" width="80" height="10" rx="5" fill="#94A3B8"/>
  <rect x="232" y="300" width="696" height="52" rx="8" fill="#FFFFFF" stroke="#E2E8F0" stroke-width="1"/>
  <circle cx="268" cy="326" r="14" fill="#DBEAFE"/>
  <rect x="296" y="318" width="140" height="10" rx="5" fill="#CBD5E1"/>
  <rect x="620" y="318" width="52" height="10" rx="5" fill="#CBD5E1"/>
  <rect x="820" y="318" width="64" height="10" rx="5" fill="#CBD5E1"/>
  <rect x="232" y="364" width="696" height="52" rx="8" fill="#FFFFFF" stroke="#E2E8F0" stroke-width="1"/>
  <circle cx="268" cy="390" r="14" fill="#FCE7F3"/>
  <rect x="296" y="382" width="120" height="10" rx="5" fill="#CBD5E1"/>
  <rect x="620" y="382" width="52" height="10" rx="5" fill="#CBD5E1"/>
  <rect x="820" y="382" width="64" height="10" rx="5" fill="#CBD5E1"/>
  <rect x="232" y="428" width="696" height="52" rx="8" fill="#FFFFFF" stroke="#E2E8F0" stroke-width="1"/>
  <circle cx="268" cy="454" r="14" fill="#DCFCE7"/>
  <rect x="296" y="446" width="130" height="10" rx="5" fill="#CBD5E1"/>
  <rect x="620" y="446" width="52" height="10" rx="5" fill="#CBD5E1"/>
  <rect x="820" y="446" width="64" height="10" rx="5" fill="#CBD5E1"/>
  <rect x="232" y="500" width="696" height="56" rx="10" fill="#2563EB"/>
  <rect x="264" y="520" width="180" height="12" rx="6" fill="white" fill-opacity="0.9"/>
  <rect x="800" y="516" width="104" height="24" rx="6" fill="white"/>
</svg>
